# xmcd
#
# Track frame offsets:
#	150
#	12798
#	27700
#	32715
#	44125
#	62765
#	70720
#	83605
#	90575
#	107550
#	120745
#	137328
#	150078
#
# Disc length: 2180 seconds
#
# Revision: 1
# Processed by: cddbd v1.5.1PL0 Copyright (c) Steve Scherf et al.
# Submitted via: MusicWizard 7.0.2
#
DISCID=9b08820d
DTITLE=Emmylou Harris - The Ballad Of Sally Rose
DYEAR=1985
DGENRE=Country
TTITLE0=The Ballad Of Sally Rose
TTITLE1=Rhythm Guitar
TTITLE2=I Think I Love Him and You Are My Flower
TTITLE3=Heart To Heart
TTITLE4=Woman Walk The Line
TTITLE5=Bad News
TTITLE6=Timberline
TTITLE7=Long Tall Sally Rose
TTITLE8=White Line
TTITLE9=Diamond In My Crown
TTITLE10=The Sweetheart Of The Rodeo
TTITLE11=K-S-O-S  ((Ring Of Fire and Wildwood Flower and Six Days On The Road))
TTITLE12=Sweet Chariot
EXTD=(c)1985 Warner Bros - WEA\nupc 07599252052\nWritten and Produced by Emmylou Harris and Paul K
EXTD=ennerley\n\n
EXTT0=
EXTT1=
EXTT2=
EXTT3=
EXTT4=
EXTT5=
EXTT6=
EXTT7=
EXTT8=
EXTT9=
EXTT10=
EXTT11=
EXTT12=
PLAYORDER=
